<svg width="256" height="256" version="2.0" xmlns="http://www.w3.org/2000/svg" xmlns:xlink="http://www.w3.org/1999/xlink" xmlns:figma="http://www.figma.com/figma/ns">
<title>Frame</title>
<desc>Created using Figma (9000)</desc>
<g id="Canvas" transform="translate(0 -275)" figma:type="canvas">
<mask id="mask0_outline" mask-type="alpha">
<path d="
M 0 275
L 256 275
L 256 531
L 0 531
L 0 275
Z" fill="#FFFFFF"/>
</mask>
<g id="Frame" style="mix-blend-mode:normal;" mask="url(#mask0_outline)" figma:type="frame">
<g id="diagram" style="mix-blend-mode:normal;" figma:type="group">
<g id="Group" style="mix-blend-mode:normal;" figma:type="group">
<g id="Rectangle 5" style="mix-blend-mode:normal;" figma:type="rounded-rectangle">
<use xlink:href="#path0_stroke" transform="translate(183.88 317.5)" fill="#8F4CFF" style="mix-blend-mode:normal;"/>
</g>
<g id="Rectangle 5" style="mix-blend-mode:normal;" figma:type="rounded-rectangle">
<use xlink:href="#path0_stroke" transform="translate(110.528 317.5)" fill="#8F4CFF" style="mix-blend-mode:normal;"/>
</g>
<g id="Rectangle 5" style="mix-blend-mode:normal;" figma:type="rounded-rectangle">
<use xlink:href="#path0_stroke" transform="translate(37.1761 317.5)" fill="#8F4CFF" style="mix-blend-mode:normal;"/>
</g>
<g id="Rectangle 5" style="mix-blend-mode:normal;" figma:type="rounded-rectangle">
<use xlink:href="#path1_stroke" transform="translate(37.1761 391.801)" fill="#8F4CFF" style="mix-blend-mode:normal;"/>
</g>
<g id="Rectangle 5" style="mix-blend-mode:normal;" figma:type="rounded-rectangle">
<use xlink:href="#path2_stroke" transform="translate(37.1761 466.101)" fill="#8F4CFF" style="mix-blend-mode:normal;"/>
</g>
<g id="Rectangle 5" style="mix-blend-mode:normal;" figma:type="rounded-rectangle">
<use xlink:href="#path2_stroke" transform="translate(110.528 466.101)" fill="#8F4CFF" style="mix-blend-mode:normal;"/>
</g>
<g id="Rectangle 5" style="mix-blend-mode:normal;" figma:type="rounded-rectangle">
<use xlink:href="#path2_stroke" transform="translate(183.88 466.101)" fill="#8F4CFF" style="mix-blend-mode:normal;"/>
</g>
<g id="Rectangle 5" style="mix-blend-mode:normal;" figma:type="rounded-rectangle">
<use xlink:href="#path1_stroke" transform="translate(183.88 391.801)" fill="#8F4CFF" style="mix-blend-mode:normal;"/>
</g>
</g>
<g id="Vector" style="mix-blend-mode:normal;" figma:type="vector">
<use xlink:href="#path3_stroke" transform="translate(47.8239 328.199)" fill="#CCCCCC" style="mix-blend-mode:normal;"/>
</g>
<g id="Rectangle 5" style="mix-blend-mode:normal;" figma:type="rounded-rectangle">
<use xlink:href="#path1_stroke" transform="translate(110.528 391.801)" fill="#CCCCCC" style="mix-blend-mode:normal;"/>
</g>
</g>
<g id="labels" style="mix-blend-mode:normal;" figma:type="group">
<g id="i, j" style="mix-blend-mode:normal;" figma:type="vector">
<use xlink:href="#path4_fill" transform="translate(113.176 397.5)" fill="#CCCCCC" style="mix-blend-mode:normal;"/>
<use xlink:href="#path5_fill" transform="translate(113.176 397.5)" fill="#CCCCCC" style="mix-blend-mode:normal;"/>
<use xlink:href="#path6_fill" transform="translate(113.176 397.5)" fill="#CCCCCC" style="mix-blend-mode:normal;"/>
</g>
<g id="(i,j+k)" style="mix-blend-mode:normal;" figma:type="text">
<use xlink:href="#path7_fill" transform="translate(98.1761 297.5)" fill="#CCCCCC" style="mix-blend-mode:normal;"/>
</g>
<g id="(i+k,j+k)" style="mix-blend-mode:normal;" figma:type="text">
<use xlink:href="#path8_fill" transform="translate(172.676 297.5)" fill="#CCCCCC" style="mix-blend-mode:normal;"/>
</g>
<g id="(i-k,j+k)" style="mix-blend-mode:normal;" figma:type="text">
<use xlink:href="#path9_fill" transform="translate(18.3239 297.5)" fill="#CCCCCC" style="mix-blend-mode:normal;"/>
</g>
<g id="(i+k,j)" style="mix-blend-mode:normal;" figma:type="text">
<use xlink:href="#path10_fill" transform="translate(172.676 372.5)" fill="#CCCCCC" style="mix-blend-mode:normal;"/>
</g>
<g id="(i-k,j)" style="mix-blend-mode:normal;" figma:type="text">
<use xlink:href="#path11_fill" transform="translate(18.3239 372.5)" fill="#CCCCCC" style="mix-blend-mode:normal;"/>
</g>
<g id="(i+k,j-k)" style="mix-blend-mode:normal;" figma:type="text">
<use xlink:href="#path12_fill" transform="translate(172.676 491.5)" fill="#CCCCCC" style="mix-blend-mode:normal;"/>
</g>
<g id="(i,j-k)" style="mix-blend-mode:normal;" figma:type="text">
<use xlink:href="#path13_fill" transform="translate(98.1761 491.5)" fill="#CCCCCC" style="mix-blend-mode:normal;"/>
</g>
<g id="(i-k,j-k)" style="mix-blend-mode:normal;" figma:type="text">
<use xlink:href="#path14_fill" transform="translate(18.3239 491.5)" fill="#CCCCCC" style="mix-blend-mode:normal;"/>
</g>
</g>
</g>
</g>
<defs>
<path id="path0_stroke" d="
M 20.2958 1
L 20.2958 20.3986
L 1 20.3986
L 1 1
L 20.2958 1
Z
M 20.2958 21.3986
L 21.2958 21.3986
L 21.2958 20.3986
L 21.2958 1
L 21.2958 0
L 20.2958 0
L 1 0
L 0 0
L 0 1
L 0 20.3986
L 0 21.3986
L 1 21.3986
L 20.2958 21.3986
Z"/>
<path id="path1_stroke" d="
M 20.2958 1
L 20.2958 20.3986
L 1 20.3986
L 1 1
L 20.2958 1
Z
M 20.2958 21.3986
L 21.2958 21.3986
L 21.2958 20.3986
L 21.2958 1
L 21.2958 0
L 20.2958 0
L 1 0
L 0 0
L 0 1
L 0 20.3986
L 0 21.3986
L 1 21.3986
L 20.2958 21.3986
Z"/>
<path id="path2_stroke" d="
M 20.2958 1
L 20.2958 20.3986
L 1 20.3986
L 1 1
L 20.2958 1
Z
M 20.2958 21.3986
L 21.2958 21.3986
L 21.2958 20.3986
L 21.2958 1
L 21.2958 0
L 20.2958 0
L 1 0
L 0 0
L 0 1
L 0 20.3986
L 0 21.3986
L 1 21.3986
L 20.2958 21.3986
Z"/>
<path id="path3_stroke" d="
M 146.704 -8.88178e-16
L 141.128 1.49712
L 145.213 5.57753
L 146.704 -8.88178e-16
Z
M 0 0
L 1.49146 5.57753
L 5.57602 1.49712
L 0 0
Z
M 73.3521 0
L 70.4654 5
L 76.2389 5
L 73.3521 0
Z
M 73.3521 148.601
L 76.2389 143.601
L 70.4654 143.601
L 73.3521 148.601
Z
M 146.704 148.601
L 145.278 143.007
L 141.146 147.039
L 146.704 148.601
Z
M 146.704 73.4266
L 141.704 70.5398
L 141.704 76.3133
L 146.704 73.4266
Z
M 0 73.4266
L 5 76.3133
L 5 70.5398
L 0 73.4266
Z
M 0 148.601
L 5.55802 147.039
L 1.42575 143.007
L 0 148.601
Z
M 62.9261 73.9266
L 63.4261 73.9266
L 63.4261 72.9266
L 62.9261 72.9266
L 62.9261 73.9266
Z
M 63.6023 64.3743
L 63.9556 64.728
L 64.6631 64.0213
L 64.3097 63.6675
L 63.6023 64.3743
Z
M 72.8521 64.0209
L 72.8521 64.5209
L 73.8521 64.5209
L 73.8521 64.0209
L 72.8521 64.0209
Z
M 82.3945 63.6675
L 82.0411 64.0213
L 82.7486 64.728
L 83.102 64.3743
L 82.3945 63.6675
Z
M 83.5511 72.9266
L 83.0511 72.9266
L 83.0511 73.9266
L 83.5511 73.9266
L 83.5511 72.9266
Z
M 84.2996 83.9302
L 83.9504 83.5723
L 83.2347 84.2707
L 83.5839 84.6285
L 84.2996 83.9302
Z
M 73.8521 84.2793
L 73.8521 83.7793
L 72.8521 83.7793
L 72.8521 84.2793
L 73.8521 84.2793
Z
M 63.2839 84.4609
L 63.6331 84.103
L 62.9174 83.4047
L 62.5682 83.7625
L 63.2839 84.4609
Z
M 62.9261 72.9266
L 4.5 72.9266
L 4.5 73.9266
L 62.9261 73.9266
L 62.9261 72.9266
Z
M 64.3097 63.6675
L 3.5341 2.83022
L 2.82663 3.53697
L 63.6023 64.3743
L 64.3097 63.6675
Z
M 73.8521 64.0209
L 73.8521 4.5
L 72.8521 4.5
L 72.8521 64.0209
L 73.8521 64.0209
Z
M 83.102 64.3743
L 143.878 3.53697
L 143.17 2.83022
L 82.3945 63.6675
L 83.102 64.3743
Z
M 83.5511 73.9266
L 142.204 73.9266
L 142.204 72.9266
L 83.5511 72.9266
L 83.5511 73.9266
Z
M 83.5839 84.6285
L 143.204 145.73
L 143.919 145.031
L 84.2996 83.9302
L 83.5839 84.6285
Z
M 72.8521 84.2793
L 72.8521 144.101
L 73.8521 144.101
L 73.8521 84.2793
L 72.8521 84.2793
Z
M 62.5682 83.7625
L 2.78483 145.031
L 3.50056 145.73
L 63.2839 84.4609
L 62.5682 83.7625
Z"/>
<path id="path4_fill" d="
M 1.66212 8.57177
L 1.66212 3.55898
L 0 3.55898
L 0 2.7513
L 2.65938 2.7513
L 2.65938 7.76409
L 4.32686 7.76409
L 4.32686 8.57177
L 1.66212 8.57177
Z
M 1.4959 0.65135
C 1.4959 0.432496 1.57275 0.269225 1.72646 0.161535
C 1.88016 0.0538449 2.02492 0 2.16075 0
C 2.30015 0 2.44671 0.0538449 2.60041 0.161535
C 2.75411 0.269225 2.83096 0.432496 2.83096 0.65135
C 2.83096 0.86673 2.75411 1.02826 2.60041 1.13595
C 2.44671 1.24364 2.30015 1.29749 2.16075 1.29749
C 2.02492 1.29749 1.88016 1.24364 1.72646 1.13595
C 1.57275 1.02826 1.4959 0.86673 1.4959 0.65135
Z"/>
<path id="path5_fill" d="
M 6.84441 10.8333
L 6.84441 10.1871
C 7.10177 10.1211 7.29658 10.0256 7.42883 9.90052
C 7.56466 9.77894 7.67189 9.62261 7.75053 9.43155
C 7.83274 9.24396 7.87385 9.01642 7.87385 8.74893
C 7.54143 8.74893 7.29658 8.65861 7.1393 8.47797
C 6.98203 8.29386 6.90339 8.09758 6.90339 7.88915
C 6.90339 7.64946 6.99096 7.44797 7.16611 7.2847
C 7.34126 7.11795 7.545 7.03458 7.77734 7.03458
C 8.07759 7.03458 8.33674 7.16138 8.55478 7.41497
C 8.77282 7.66509 8.88184 8.009 8.88184 8.44671
C 8.88184 8.82883 8.79606 9.18838 8.62448 9.52534
C 8.45291 9.86578 8.21878 10.1559 7.92211 10.3955
C 7.629 10.6352 7.26977 10.7811 6.84441 10.8333
Z"/>
<path id="path6_fill" d="
M 10.8394 10.8541
L 10.8394 9.94742
C 11.397 10.1072 11.867 10.1871 12.2495 10.1871
C 12.5819 10.1871 12.8643 10.1298 13.0966 10.0152
C 13.3289 9.90399 13.5095 9.71467 13.6381 9.44718
C 13.7704 9.17969 13.8365 8.7142 13.8365 8.05069
L 13.8365 3.55898
L 11.2951 3.55898
L 11.2951 2.7513
L 14.8338 2.7513
L 14.8338 7.86831
C 14.8338 8.85489 14.714 9.53924 14.4746 9.92136
C 14.2351 10.307 13.9455 10.5831 13.606 10.7499
C 13.2664 10.9166 12.8017 11 12.2119 11
C 11.7866 11 11.329 10.9514 10.8394 10.8541
Z
M 13.6703 0.65135
C 13.6703 0.432496 13.7454 0.269225 13.8955 0.161535
C 14.0492 0.0538449 14.1958 0 14.3352 0
C 14.4746 0 14.6193 0.0538449 14.7694 0.161535
C 14.9231 0.269225 15 0.432496 15 0.65135
C 15 0.86673 14.9231 1.02826 14.7694 1.13595
C 14.6193 1.24364 14.4746 1.29749 14.3352 1.29749
C 14.1958 1.29749 14.0492 1.24364 13.8955 1.13595
C 13.7454 1.02826 13.6703 0.86673 13.6703 0.65135
Z"/>
<path id="path7_fill" d="
M 6.28125 14.1797
C 5.19922 14.1133 4.28711 13.8066 3.54492 13.2598
C 2.80273 12.7168 2.20898 11.9824 1.76367 11.0566
C 1.32227 10.1309 1.10156 9.20312 1.10156 8.27344
C 1.10156 7.34375 1.32227 6.41602 1.76367 5.49023
C 2.20898 4.56445 2.80273 3.83008 3.54492 3.28711
C 4.28711 2.74023 5.19922 2.43164 6.28125 2.36133
L 6.28125 3.27539
C 5.46484 3.34961 4.76172 3.625 4.17188 4.10156
C 3.58594 4.57422 3.125 5.17773 2.78906 5.91211
C 2.45312 6.64648 2.28516 7.43359 2.28516 8.27344
C 2.28516 9.11328 2.45312 9.90039 2.78906 10.6348
C 3.125 11.3691 3.58594 11.9727 4.17188 12.4453
C 4.76172 12.918 5.46484 13.1934 6.28125 13.2715
L 6.28125 14.1797
Z
M 9.94336 12
L 9.94336 6.36328
L 8.12695 6.36328
L 8.12695 5.45508
L 11.0332 5.45508
L 11.0332 11.0918
L 12.8555 11.0918
L 12.8555 12
L 9.94336 12
Z
M 9.76172 3.09375
C 9.76172 2.84766 9.8457 2.66406 10.0137 2.54297
C 10.1816 2.42187 10.3398 2.36133 10.4883 2.36133
C 10.6406 2.36133 10.8008 2.42187 10.9688 2.54297
C 11.1367 2.66406 11.2207 2.84766 11.2207 3.09375
C 11.2207 3.33594 11.1367 3.51758 10.9688 3.63867
C 10.8008 3.75977 10.6406 3.82031 10.4883 3.82031
C 10.3398 3.82031 10.1816 3.75977 10.0137 3.63867
C 9.8457 3.51758 9.76172 3.33594 9.76172 3.09375
Z
M 16.8867 14.543
L 16.8867 13.8164
C 17.168 13.7422 17.3809 13.6348 17.5254 13.4941
C 17.6738 13.3574 17.791 13.1816 17.877 12.9668
C 17.9668 12.7559 18.0117 12.5 18.0117 12.1992
C 17.6484 12.1992 17.3809 12.0977 17.209 11.8945
C 17.0371 11.6875 16.9512 11.4668 16.9512 11.2324
C 16.9512 10.9629 17.0469 10.7363 17.2383 10.5527
C 17.4297 10.3652 17.6523 10.2715 17.9062 10.2715
C 18.2344 10.2715 18.5176 10.4141 18.7559 10.6992
C 18.9941 10.9805 19.1133 11.3672 19.1133 11.8594
C 19.1133 12.2891 19.0195 12.6934 18.832 13.0723
C 18.6445 13.4551 18.3887 13.7812 18.0645 14.0508
C 17.7441 14.3203 17.3516 14.4844 16.8867 14.543
Z
M 22.6113 14.5664
L 22.6113 13.5469
C 23.2207 13.7266 23.7344 13.8164 24.1523 13.8164
C 24.5156 13.8164 24.8242 13.752 25.0781 13.623
C 25.332 13.498 25.5293 13.2852 25.6699 12.9844
C 25.8145 12.6836 25.8867 12.1602 25.8867 11.4141
L 25.8867 6.36328
L 23.1094 6.36328
L 23.1094 5.45508
L 26.9766 5.45508
L 26.9766 11.209
C 26.9766 12.3184 26.8457 13.0879 26.584 13.5176
C 26.3223 13.9512 26.0059 14.2617 25.6348 14.4492
C 25.2637 14.6367 24.7559 14.7305 24.1113 14.7305
C 23.6465 14.7305 23.1465 14.6758 22.6113 14.5664
Z
M 25.7051 3.09375
C 25.7051 2.84766 25.7871 2.66406 25.9512 2.54297
C 26.1191 2.42187 26.2793 2.36133 26.4316 2.36133
C 26.584 2.36133 26.7422 2.42187 26.9062 2.54297
C 27.0742 2.66406 27.1582 2.84766 27.1582 3.09375
C 27.1582 3.33594 27.0742 3.51758 26.9062 3.63867
C 26.7422 3.75977 26.584 3.82031 26.4316 3.82031
C 26.2793 3.82031 26.1191 3.75977 25.9512 3.63867
C 25.7871 3.51758 25.7051 3.33594 25.7051 3.09375
Z
M 35.584 8.36133
L 35.584 9.27539
L 32.8594 9.27539
L 32.8594 12
L 31.9453 12
L 31.9453 9.27539
L 29.2207 9.27539
L 29.2207 8.36133
L 31.9453 8.36133
L 31.9453 5.63672
L 32.8594 5.63672
L 32.8594 8.36133
L 35.584 8.36133
Z
M 37.207 12
L 37.207 2.54297
L 38.2969 2.54297
L 38.2969 8.48438
L 41.4434 5.45508
L 42.8965 5.45508
L 39.7559 8.48438
L 42.9785 12
L 41.4785 12
L 38.2969 8.48438
L 38.2969 12
L 37.207 12
Z
M 44.127 2.36133
C 45.209 2.43164 46.1211 2.74023 46.8633 3.28711
C 47.6055 3.83008 48.1973 4.56445 48.6387 5.49023
C 49.084 6.41602 49.3066 7.34375 49.3066 8.27344
C 49.3066 9.20312 49.084 10.1309 48.6387 11.0566
C 48.1973 11.9824 47.6055 12.7168 46.8633 13.2598
C 46.1211 13.8066 45.209 14.1133 44.127 14.1797
L 44.127 13.2715
C 44.9434 13.1934 45.6445 12.918 46.2305 12.4453
C 46.8203 11.9727 47.2832 11.3691 47.6191 10.6348
C 47.959 9.90039 48.1289 9.11328 48.1289 8.27344
C 48.1289 7.43359 47.959 6.64648 47.6191 5.91211
C 47.2832 5.17773 46.8203 4.57422 46.2305 4.10156
C 45.6445 3.625 44.9434 3.34961 44.127 3.27539
L 44.127 2.36133
Z"/>
<path id="path8_fill" d="
M 6.28125 14.1797
C 5.19922 14.1133 4.28711 13.8066 3.54492 13.2598
C 2.80273 12.7168 2.20898 11.9824 1.76367 11.0566
C 1.32227 10.1309 1.10156 9.20312 1.10156 8.27344
C 1.10156 7.34375 1.32227 6.41602 1.76367 5.49023
C 2.20898 4.56445 2.80273 3.83008 3.54492 3.28711
C 4.28711 2.74023 5.19922 2.43164 6.28125 2.36133
L 6.28125 3.27539
C 5.46484 3.34961 4.76172 3.625 4.17188 4.10156
C 3.58594 4.57422 3.125 5.17773 2.78906 5.91211
C 2.45312 6.64648 2.28516 7.43359 2.28516 8.27344
C 2.28516 9.11328 2.45312 9.90039 2.78906 10.6348
C 3.125 11.3691 3.58594 11.9727 4.17188 12.4453
C 4.76172 12.918 5.46484 13.1934 6.28125 13.2715
L 6.28125 14.1797
Z
M 9.94336 12
L 9.94336 6.36328
L 8.12695 6.36328
L 8.12695 5.45508
L 11.0332 5.45508
L 11.0332 11.0918
L 12.8555 11.0918
L 12.8555 12
L 9.94336 12
Z
M 9.76172 3.09375
C 9.76172 2.84766 9.8457 2.66406 10.0137 2.54297
C 10.1816 2.42187 10.3398 2.36133 10.4883 2.36133
C 10.6406 2.36133 10.8008 2.42187 10.9688 2.54297
C 11.1367 2.66406 11.2207 2.84766 11.2207 3.09375
C 11.2207 3.33594 11.1367 3.51758 10.9688 3.63867
C 10.8008 3.75977 10.6406 3.82031 10.4883 3.82031
C 10.3398 3.82031 10.1816 3.75977 10.0137 3.63867
C 9.8457 3.51758 9.76172 3.33594 9.76172 3.09375
Z
M 21.1816 8.36133
L 21.1816 9.27539
L 18.457 9.27539
L 18.457 12
L 17.543 12
L 17.543 9.27539
L 14.8184 9.27539
L 14.8184 8.36133
L 17.543 8.36133
L 17.543 5.63672
L 18.457 5.63672
L 18.457 8.36133
L 21.1816 8.36133
Z
M 22.8047 12
L 22.8047 2.54297
L 23.8945 2.54297
L 23.8945 8.48438
L 27.041 5.45508
L 28.4941 5.45508
L 25.3535 8.48438
L 28.5762 12
L 27.0762 12
L 23.8945 8.48438
L 23.8945 12
L 22.8047 12
Z
M 31.2891 14.543
L 31.2891 13.8164
C 31.5703 13.7422 31.7832 13.6348 31.9277 13.4941
C 32.0762 13.3574 32.1934 13.1816 32.2793 12.9668
C 32.3691 12.7559 32.4141 12.5 32.4141 12.1992
C 32.0508 12.1992 31.7832 12.0977 31.6113 11.8945
C 31.4395 11.6875 31.3535 11.4668 31.3535 11.2324
C 31.3535 10.9629 31.4492 10.7363 31.6406 10.5527
C 31.832 10.3652 32.0547 10.2715 32.3086 10.2715
C 32.6367 10.2715 32.9199 10.4141 33.1582 10.6992
C 33.3965 10.9805 33.5156 11.3672 33.5156 11.8594
C 33.5156 12.2891 33.4219 12.6934 33.2344 13.0723
C 33.0469 13.4551 32.791 13.7812 32.4668 14.0508
C 32.1465 14.3203 31.7539 14.4844 31.2891 14.543
Z
M 37.0137 14.5664
L 37.0137 13.5469
C 37.623 13.7266 38.1367 13.8164 38.5547 13.8164
C 38.918 13.8164 39.2266 13.752 39.4805 13.623
C 39.7344 13.498 39.9316 13.2852 40.0723 12.9844
C 40.2168 12.6836 40.2891 12.1602 40.2891 11.4141
L 40.2891 6.36328
L 37.5117 6.36328
L 37.5117 5.45508
L 41.3789 5.45508
L 41.3789 11.209
C 41.3789 12.3184 41.248 13.0879 40.9863 13.5176
C 40.7246 13.9512 40.4082 14.2617 40.0371 14.4492
C 39.666 14.6367 39.1582 14.7305 38.5137 14.7305
C 38.0488 14.7305 37.5488 14.6758 37.0137 14.5664
Z
M 40.1074 3.09375
C 40.1074 2.84766 40.1895 2.66406 40.3535 2.54297
C 40.5215 2.42187 40.6816 2.36133 40.834 2.36133
C 40.9863 2.36133 41.1445 2.42187 41.3086 2.54297
C 41.4766 2.66406 41.5605 2.84766 41.5605 3.09375
C 41.5605 3.33594 41.4766 3.51758 41.3086 3.63867
C 41.1445 3.75977 40.9863 3.82031 40.834 3.82031
C 40.6816 3.82031 40.5215 3.75977 40.3535 3.63867
C 40.1895 3.51758 40.1074 3.33594 40.1074 3.09375
Z
M 49.9863 8.36133
L 49.9863 9.27539
L 47.2617 9.27539
L 47.2617 12
L 46.3477 12
L 46.3477 9.27539
L 43.623 9.27539
L 43.623 8.36133
L 46.3477 8.36133
L 46.3477 5.63672
L 47.2617 5.63672
L 47.2617 8.36133
L 49.9863 8.36133
Z
M 51.6094 12
L 51.6094 2.54297
L 52.6992 2.54297
L 52.6992 8.48438
L 55.8457 5.45508
L 57.2988 5.45508
L 54.1582 8.48438
L 57.3809 12
L 55.8809 12
L 52.6992 8.48438
L 52.6992 12
L 51.6094 12
Z
M 58.5293 2.36133
C 59.6113 2.43164 60.5234 2.74023 61.2656 3.28711
C 62.0078 3.83008 62.5996 4.56445 63.041 5.49023
C 63.4863 6.41602 63.709 7.34375 63.709 8.27344
C 63.709 9.20312 63.4863 10.1309 63.041 11.0566
C 62.5996 11.9824 62.0078 12.7168 61.2656 13.2598
C 60.5234 13.8066 59.6113 14.1133 58.5293 14.1797
L 58.5293 13.2715
C 59.3457 13.1934 60.0469 12.918 60.6328 12.4453
C 61.2227 11.9727 61.6855 11.3691 62.0215 10.6348
C 62.3613 9.90039 62.5312 9.11328 62.5312 8.27344
C 62.5312 7.43359 62.3613 6.64648 62.0215 5.91211
C 61.6855 5.17773 61.2227 4.57422 60.6328 4.10156
C 60.0469 3.625 59.3457 3.34961 58.5293 3.27539
L 58.5293 2.36133
Z"/>
<path id="path9_fill" d="
M 6.28125 14.1797
C 5.19922 14.1133 4.28711 13.8066 3.54492 13.2598
C 2.80273 12.7168 2.20898 11.9824 1.76367 11.0566
C 1.32227 10.1309 1.10156 9.20312 1.10156 8.27344
C 1.10156 7.34375 1.32227 6.41602 1.76367 5.49023
C 2.20898 4.56445 2.80273 3.83008 3.54492 3.28711
C 4.28711 2.74023 5.19922 2.43164 6.28125 2.36133
L 6.28125 3.27539
C 5.46484 3.34961 4.76172 3.625 4.17188 4.10156
C 3.58594 4.57422 3.125 5.17773 2.78906 5.91211
C 2.45312 6.64648 2.28516 7.43359 2.28516 8.27344
C 2.28516 9.11328 2.45312 9.90039 2.78906 10.6348
C 3.125 11.3691 3.58594 11.9727 4.17188 12.4453
C 4.76172 12.918 5.46484 13.1934 6.28125 13.2715
L 6.28125 14.1797
Z
M 9.94336 12
L 9.94336 6.36328
L 8.12695 6.36328
L 8.12695 5.45508
L 11.0332 5.45508
L 11.0332 11.0918
L 12.8555 11.0918
L 12.8555 12
L 9.94336 12
Z
M 9.76172 3.09375
C 9.76172 2.84766 9.8457 2.66406 10.0137 2.54297
C 10.1816 2.42187 10.3398 2.36133 10.4883 2.36133
C 10.6406 2.36133 10.8008 2.42187 10.9688 2.54297
C 11.1367 2.66406 11.2207 2.84766 11.2207 3.09375
C 11.2207 3.33594 11.1367 3.51758 10.9688 3.63867
C 10.8008 3.75977 10.6406 3.82031 10.4883 3.82031
C 10.3398 3.82031 10.1816 3.75977 10.0137 3.63867
C 9.8457 3.51758 9.76172 3.33594 9.76172 3.09375
Z
M 15.7324 8.77148
L 15.7324 7.86328
L 20.2793 7.86328
L 20.2793 8.77148
L 15.7324 8.77148
Z
M 22.8047 12
L 22.8047 2.54297
L 23.8945 2.54297
L 23.8945 8.48438
L 27.041 5.45508
L 28.4941 5.45508
L 25.3535 8.48438
L 28.5762 12
L 27.0762 12
L 23.8945 8.48438
L 23.8945 12
L 22.8047 12
Z
M 31.2891 14.543
L 31.2891 13.8164
C 31.5703 13.7422 31.7832 13.6348 31.9277 13.4941
C 32.0762 13.3574 32.1934 13.1816 32.2793 12.9668
C 32.3691 12.7559 32.4141 12.5 32.4141 12.1992
C 32.0508 12.1992 31.7832 12.0977 31.6113 11.8945
C 31.4395 11.6875 31.3535 11.4668 31.3535 11.2324
C 31.3535 10.9629 31.4492 10.7363 31.6406 10.5527
C 31.832 10.3652 32.0547 10.2715 32.3086 10.2715
C 32.6367 10.2715 32.9199 10.4141 33.1582 10.6992
C 33.3965 10.9805 33.5156 11.3672 33.5156 11.8594
C 33.5156 12.2891 33.4219 12.6934 33.2344 13.0723
C 33.0469 13.4551 32.791 13.7812 32.4668 14.0508
C 32.1465 14.3203 31.7539 14.4844 31.2891 14.543
Z
M 37.0137 14.5664
L 37.0137 13.5469
C 37.623 13.7266 38.1367 13.8164 38.5547 13.8164
C 38.918 13.8164 39.2266 13.752 39.4805 13.623
C 39.7344 13.498 39.9316 13.2852 40.0723 12.9844
C 40.2168 12.6836 40.2891 12.1602 40.2891 11.4141
L 40.2891 6.36328
L 37.5117 6.36328
L 37.5117 5.45508
L 41.3789 5.45508
L 41.3789 11.209
C 41.3789 12.3184 41.248 13.0879 40.9863 13.5176
C 40.7246 13.9512 40.4082 14.2617 40.0371 14.4492
C 39.666 14.6367 39.1582 14.7305 38.5137 14.7305
C 38.0488 14.7305 37.5488 14.6758 37.0137 14.5664
Z
M 40.1074 3.09375
C 40.1074 2.84766 40.1895 2.66406 40.3535 2.54297
C 40.5215 2.42187 40.6816 2.36133 40.834 2.36133
C 40.9863 2.36133 41.1445 2.42187 41.3086 2.54297
C 41.4766 2.66406 41.5605 2.84766 41.5605 3.09375
C 41.5605 3.33594 41.4766 3.51758 41.3086 3.63867
C 41.1445 3.75977 40.9863 3.82031 40.834 3.82031
C 40.6816 3.82031 40.5215 3.75977 40.3535 3.63867
C 40.1895 3.51758 40.1074 3.33594 40.1074 3.09375
Z
M 49.9863 8.36133
L 49.9863 9.27539
L 47.2617 9.27539
L 47.2617 12
L 46.3477 12
L 46.3477 9.27539
L 43.623 9.27539
L 43.623 8.36133
L 46.3477 8.36133
L 46.3477 5.63672
L 47.2617 5.63672
L 47.2617 8.36133
L 49.9863 8.36133
Z
M 51.6094 12
L 51.6094 2.54297
L 52.6992 2.54297
L 52.6992 8.48438
L 55.8457 5.45508
L 57.2988 5.45508
L 54.1582 8.48438
L 57.3809 12
L 55.8809 12
L 52.6992 8.48438
L 52.6992 12
L 51.6094 12
Z
M 58.5293 2.36133
C 59.6113 2.43164 60.5234 2.74023 61.2656 3.28711
C 62.0078 3.83008 62.5996 4.56445 63.041 5.49023
C 63.4863 6.41602 63.709 7.34375 63.709 8.27344
C 63.709 9.20312 63.4863 10.1309 63.041 11.0566
C 62.5996 11.9824 62.0078 12.7168 61.2656 13.2598
C 60.5234 13.8066 59.6113 14.1133 58.5293 14.1797
L 58.5293 13.2715
C 59.3457 13.1934 60.0469 12.918 60.6328 12.4453
C 61.2227 11.9727 61.6855 11.3691 62.0215 10.6348
C 62.3613 9.90039 62.5312 9.11328 62.5312 8.27344
C 62.5312 7.43359 62.3613 6.64648 62.0215 5.91211
C 61.6855 5.17773 61.2227 4.57422 60.6328 4.10156
C 60.0469 3.625 59.3457 3.34961 58.5293 3.27539
L 58.5293 2.36133
Z"/>
<path id="path10_fill" d="
M 6.28125 14.1797
C 5.19922 14.1133 4.28711 13.8066 3.54492 13.2598
C 2.80273 12.7168 2.20898 11.9824 1.76367 11.0566
C 1.32227 10.1309 1.10156 9.20312 1.10156 8.27344
C 1.10156 7.34375 1.32227 6.41602 1.76367 5.49023
C 2.20898 4.56445 2.80273 3.83008 3.54492 3.28711
C 4.28711 2.74023 5.19922 2.43164 6.28125 2.36133
L 6.28125 3.27539
C 5.46484 3.34961 4.76172 3.625 4.17188 4.10156
C 3.58594 4.57422 3.125 5.17773 2.78906 5.91211
C 2.45312 6.64648 2.28516 7.43359 2.28516 8.27344
C 2.28516 9.11328 2.45312 9.90039 2.78906 10.6348
C 3.125 11.3691 3.58594 11.9727 4.17188 12.4453
C 4.76172 12.918 5.46484 13.1934 6.28125 13.2715
L 6.28125 14.1797
Z
M 9.94336 12
L 9.94336 6.36328
L 8.12695 6.36328
L 8.12695 5.45508
L 11.0332 5.45508
L 11.0332 11.0918
L 12.8555 11.0918
L 12.8555 12
L 9.94336 12
Z
M 9.76172 3.09375
C 9.76172 2.84766 9.8457 2.66406 10.0137 2.54297
C 10.1816 2.42187 10.3398 2.36133 10.4883 2.36133
C 10.6406 2.36133 10.8008 2.42187 10.9688 2.54297
C 11.1367 2.66406 11.2207 2.84766 11.2207 3.09375
C 11.2207 3.33594 11.1367 3.51758 10.9688 3.63867
C 10.8008 3.75977 10.6406 3.82031 10.4883 3.82031
C 10.3398 3.82031 10.1816 3.75977 10.0137 3.63867
C 9.8457 3.51758 9.76172 3.33594 9.76172 3.09375
Z
M 21.1816 8.36133
L 21.1816 9.27539
L 18.457 9.27539
L 18.457 12
L 17.543 12
L 17.543 9.27539
L 14.8184 9.27539
L 14.8184 8.36133
L 17.543 8.36133
L 17.543 5.63672
L 18.457 5.63672
L 18.457 8.36133
L 21.1816 8.36133
Z
M 22.8047 12
L 22.8047 2.54297
L 23.8945 2.54297
L 23.8945 8.48438
L 27.041 5.45508
L 28.4941 5.45508
L 25.3535 8.48438
L 28.5762 12
L 27.0762 12
L 23.8945 8.48438
L 23.8945 12
L 22.8047 12
Z
M 31.2891 14.543
L 31.2891 13.8164
C 31.5703 13.7422 31.7832 13.6348 31.9277 13.4941
C 32.0762 13.3574 32.1934 13.1816 32.2793 12.9668
C 32.3691 12.7559 32.4141 12.5 32.4141 12.1992
C 32.0508 12.1992 31.7832 12.0977 31.6113 11.8945
C 31.4395 11.6875 31.3535 11.4668 31.3535 11.2324
C 31.3535 10.9629 31.4492 10.7363 31.6406 10.5527
C 31.832 10.3652 32.0547 10.2715 32.3086 10.2715
C 32.6367 10.2715 32.9199 10.4141 33.1582 10.6992
C 33.3965 10.9805 33.5156 11.3672 33.5156 11.8594
C 33.5156 12.2891 33.4219 12.6934 33.2344 13.0723
C 33.0469 13.4551 32.791 13.7812 32.4668 14.0508
C 32.1465 14.3203 31.7539 14.4844 31.2891 14.543
Z
M 37.0137 14.5664
L 37.0137 13.5469
C 37.623 13.7266 38.1367 13.8164 38.5547 13.8164
C 38.918 13.8164 39.2266 13.752 39.4805 13.623
C 39.7344 13.498 39.9316 13.2852 40.0723 12.9844
C 40.2168 12.6836 40.2891 12.1602 40.2891 11.4141
L 40.2891 6.36328
L 37.5117 6.36328
L 37.5117 5.45508
L 41.3789 5.45508
L 41.3789 11.209
C 41.3789 12.3184 41.248 13.0879 40.9863 13.5176
C 40.7246 13.9512 40.4082 14.2617 40.0371 14.4492
C 39.666 14.6367 39.1582 14.7305 38.5137 14.7305
C 38.0488 14.7305 37.5488 14.6758 37.0137 14.5664
Z
M 40.1074 3.09375
C 40.1074 2.84766 40.1895 2.66406 40.3535 2.54297
C 40.5215 2.42187 40.6816 2.36133 40.834 2.36133
C 40.9863 2.36133 41.1445 2.42187 41.3086 2.54297
C 41.4766 2.66406 41.5605 2.84766 41.5605 3.09375
C 41.5605 3.33594 41.4766 3.51758 41.3086 3.63867
C 41.1445 3.75977 40.9863 3.82031 40.834 3.82031
C 40.6816 3.82031 40.5215 3.75977 40.3535 3.63867
C 40.1895 3.51758 40.1074 3.33594 40.1074 3.09375
Z
M 44.127 2.36133
C 45.209 2.43164 46.1211 2.74023 46.8633 3.28711
C 47.6055 3.83008 48.1973 4.56445 48.6387 5.49023
C 49.084 6.41602 49.3066 7.34375 49.3066 8.27344
C 49.3066 9.20312 49.084 10.1309 48.6387 11.0566
C 48.1973 11.9824 47.6055 12.7168 46.8633 13.2598
C 46.1211 13.8066 45.209 14.1133 44.127 14.1797
L 44.127 13.2715
C 44.9434 13.1934 45.6445 12.918 46.2305 12.4453
C 46.8203 11.9727 47.2832 11.3691 47.6191 10.6348
C 47.959 9.90039 48.1289 9.11328 48.1289 8.27344
C 48.1289 7.43359 47.959 6.64648 47.6191 5.91211
C 47.2832 5.17773 46.8203 4.57422 46.2305 4.10156
C 45.6445 3.625 44.9434 3.34961 44.127 3.27539
L 44.127 2.36133
Z"/>
<path id="path11_fill" d="
M 6.28125 14.1797
C 5.19922 14.1133 4.28711 13.8066 3.54492 13.2598
C 2.80273 12.7168 2.20898 11.9824 1.76367 11.0566
C 1.32227 10.1309 1.10156 9.20312 1.10156 8.27344
C 1.10156 7.34375 1.32227 6.41602 1.76367 5.49023
C 2.20898 4.56445 2.80273 3.83008 3.54492 3.28711
C 4.28711 2.74023 5.19922 2.43164 6.28125 2.36133
L 6.28125 3.27539
C 5.46484 3.34961 4.76172 3.625 4.17188 4.10156
C 3.58594 4.57422 3.125 5.17773 2.78906 5.91211
C 2.45312 6.64648 2.28516 7.43359 2.28516 8.27344
C 2.28516 9.11328 2.45312 9.90039 2.78906 10.6348
C 3.125 11.3691 3.58594 11.9727 4.17188 12.4453
C 4.76172 12.918 5.46484 13.1934 6.28125 13.2715
L 6.28125 14.1797
Z
M 9.94336 12
L 9.94336 6.36328
L 8.12695 6.36328
L 8.12695 5.45508
L 11.0332 5.45508
L 11.0332 11.0918
L 12.8555 11.0918
L 12.8555 12
L 9.94336 12
Z
M 9.76172 3.09375
C 9.76172 2.84766 9.8457 2.66406 10.0137 2.54297
C 10.1816 2.42187 10.3398 2.36133 10.4883 2.36133
C 10.6406 2.36133 10.8008 2.42187 10.9688 2.54297
C 11.1367 2.66406 11.2207 2.84766 11.2207 3.09375
C 11.2207 3.33594 11.1367 3.51758 10.9688 3.63867
C 10.8008 3.75977 10.6406 3.82031 10.4883 3.82031
C 10.3398 3.82031 10.1816 3.75977 10.0137 3.63867
C 9.8457 3.51758 9.76172 3.33594 9.76172 3.09375
Z
M 15.7324 8.77148
L 15.7324 7.86328
L 20.2793 7.86328
L 20.2793 8.77148
L 15.7324 8.77148
Z
M 22.8047 12
L 22.8047 2.54297
L 23.8945 2.54297
L 23.8945 8.48438
L 27.041 5.45508
L 28.4941 5.45508
L 25.3535 8.48438
L 28.5762 12
L 27.0762 12
L 23.8945 8.48438
L 23.8945 12
L 22.8047 12
Z
M 31.2891 14.543
L 31.2891 13.8164
C 31.5703 13.7422 31.7832 13.6348 31.9277 13.4941
C 32.0762 13.3574 32.1934 13.1816 32.2793 12.9668
C 32.3691 12.7559 32.4141 12.5 32.4141 12.1992
C 32.0508 12.1992 31.7832 12.0977 31.6113 11.8945
C 31.4395 11.6875 31.3535 11.4668 31.3535 11.2324
C 31.3535 10.9629 31.4492 10.7363 31.6406 10.5527
C 31.832 10.3652 32.0547 10.2715 32.3086 10.2715
C 32.6367 10.2715 32.9199 10.4141 33.1582 10.6992
C 33.3965 10.9805 33.5156 11.3672 33.5156 11.8594
C 33.5156 12.2891 33.4219 12.6934 33.2344 13.0723
C 33.0469 13.4551 32.791 13.7812 32.4668 14.0508
C 32.1465 14.3203 31.7539 14.4844 31.2891 14.543
Z
M 37.0137 14.5664
L 37.0137 13.5469
C 37.623 13.7266 38.1367 13.8164 38.5547 13.8164
C 38.918 13.8164 39.2266 13.752 39.4805 13.623
C 39.7344 13.498 39.9316 13.2852 40.0723 12.9844
C 40.2168 12.6836 40.2891 12.1602 40.2891 11.4141
L 40.2891 6.36328
L 37.5117 6.36328
L 37.5117 5.45508
L 41.3789 5.45508
L 41.3789 11.209
C 41.3789 12.3184 41.248 13.0879 40.9863 13.5176
C 40.7246 13.9512 40.4082 14.2617 40.0371 14.4492
C 39.666 14.6367 39.1582 14.7305 38.5137 14.7305
C 38.0488 14.7305 37.5488 14.6758 37.0137 14.5664
Z
M 40.1074 3.09375
C 40.1074 2.84766 40.1895 2.66406 40.3535 2.54297
C 40.5215 2.42187 40.6816 2.36133 40.834 2.36133
C 40.9863 2.36133 41.1445 2.42187 41.3086 2.54297
C 41.4766 2.66406 41.5605 2.84766 41.5605 3.09375
C 41.5605 3.33594 41.4766 3.51758 41.3086 3.63867
C 41.1445 3.75977 40.9863 3.82031 40.834 3.82031
C 40.6816 3.82031 40.5215 3.75977 40.3535 3.63867
C 40.1895 3.51758 40.1074 3.33594 40.1074 3.09375
Z
M 44.127 2.36133
C 45.209 2.43164 46.1211 2.74023 46.8633 3.28711
C 47.6055 3.83008 48.1973 4.56445 48.6387 5.49023
C 49.084 6.41602 49.3066 7.34375 49.3066 8.27344
C 49.3066 9.20312 49.084 10.1309 48.6387 11.0566
C 48.1973 11.9824 47.6055 12.7168 46.8633 13.2598
C 46.1211 13.8066 45.209 14.1133 44.127 14.1797
L 44.127 13.2715
C 44.9434 13.1934 45.6445 12.918 46.2305 12.4453
C 46.8203 11.9727 47.2832 11.3691 47.6191 10.6348
C 47.959 9.90039 48.1289 9.11328 48.1289 8.27344
C 48.1289 7.43359 47.959 6.64648 47.6191 5.91211
C 47.2832 5.17773 46.8203 4.57422 46.2305 4.10156
C 45.6445 3.625 44.9434 3.34961 44.127 3.27539
L 44.127 2.36133
Z"/>
<path id="path12_fill" d="
M 6.28125 14.1797
C 5.19922 14.1133 4.28711 13.8066 3.54492 13.2598
C 2.80273 12.7168 2.20898 11.9824 1.76367 11.0566
C 1.32227 10.1309 1.10156 9.20312 1.10156 8.27344
C 1.10156 7.34375 1.32227 6.41602 1.76367 5.49023
C 2.20898 4.56445 2.80273 3.83008 3.54492 3.28711
C 4.28711 2.74023 5.19922 2.43164 6.28125 2.36133
L 6.28125 3.27539
C 5.46484 3.34961 4.76172 3.625 4.17188 4.10156
C 3.58594 4.57422 3.125 5.17773 2.78906 5.91211
C 2.45312 6.64648 2.28516 7.43359 2.28516 8.27344
C 2.28516 9.11328 2.45312 9.90039 2.78906 10.6348
C 3.125 11.3691 3.58594 11.9727 4.17188 12.4453
C 4.76172 12.918 5.46484 13.1934 6.28125 13.2715
L 6.28125 14.1797
Z
M 9.94336 12
L 9.94336 6.36328
L 8.12695 6.36328
L 8.12695 5.45508
L 11.0332 5.45508
L 11.0332 11.0918
L 12.8555 11.0918
L 12.8555 12
L 9.94336 12
Z
M 9.76172 3.09375
C 9.76172 2.84766 9.8457 2.66406 10.0137 2.54297
C 10.1816 2.42187 10.3398 2.36133 10.4883 2.36133
C 10.6406 2.36133 10.8008 2.42187 10.9688 2.54297
C 11.1367 2.66406 11.2207 2.84766 11.2207 3.09375
C 11.2207 3.33594 11.1367 3.51758 10.9688 3.63867
C 10.8008 3.75977 10.6406 3.82031 10.4883 3.82031
C 10.3398 3.82031 10.1816 3.75977 10.0137 3.63867
C 9.8457 3.51758 9.76172 3.33594 9.76172 3.09375
Z
M 21.1816 8.36133
L 21.1816 9.27539
L 18.457 9.27539
L 18.457 12
L 17.543 12
L 17.543 9.27539
L 14.8184 9.27539
L 14.8184 8.36133
L 17.543 8.36133
L 17.543 5.63672
L 18.457 5.63672
L 18.457 8.36133
L 21.1816 8.36133
Z
M 22.8047 12
L 22.8047 2.54297
L 23.8945 2.54297
L 23.8945 8.48438
L 27.041 5.45508
L 28.4941 5.45508
L 25.3535 8.48438
L 28.5762 12
L 27.0762 12
L 23.8945 8.48438
L 23.8945 12
L 22.8047 12
Z
M 31.2891 14.543
L 31.2891 13.8164
C 31.5703 13.7422 31.7832 13.6348 31.9277 13.4941
C 32.0762 13.3574 32.1934 13.1816 32.2793 12.9668
C 32.3691 12.7559 32.4141 12.5 32.4141 12.1992
C 32.0508 12.1992 31.7832 12.0977 31.6113 11.8945
C 31.4395 11.6875 31.3535 11.4668 31.3535 11.2324
C 31.3535 10.9629 31.4492 10.7363 31.6406 10.5527
C 31.832 10.3652 32.0547 10.2715 32.3086 10.2715
C 32.6367 10.2715 32.9199 10.4141 33.1582 10.6992
C 33.3965 10.9805 33.5156 11.3672 33.5156 11.8594
C 33.5156 12.2891 33.4219 12.6934 33.2344 13.0723
C 33.0469 13.4551 32.791 13.7812 32.4668 14.0508
C 32.1465 14.3203 31.7539 14.4844 31.2891 14.543
Z
M 37.0137 14.5664
L 37.0137 13.5469
C 37.623 13.7266 38.1367 13.8164 38.5547 13.8164
C 38.918 13.8164 39.2266 13.752 39.4805 13.623
C 39.7344 13.498 39.9316 13.2852 40.0723 12.9844
C 40.2168 12.6836 40.2891 12.1602 40.2891 11.4141
L 40.2891 6.36328
L 37.5117 6.36328
L 37.5117 5.45508
L 41.3789 5.45508
L 41.3789 11.209
C 41.3789 12.3184 41.248 13.0879 40.9863 13.5176
C 40.7246 13.9512 40.4082 14.2617 40.0371 14.4492
C 39.666 14.6367 39.1582 14.7305 38.5137 14.7305
C 38.0488 14.7305 37.5488 14.6758 37.0137 14.5664
Z
M 40.1074 3.09375
C 40.1074 2.84766 40.1895 2.66406 40.3535 2.54297
C 40.5215 2.42187 40.6816 2.36133 40.834 2.36133
C 40.9863 2.36133 41.1445 2.42187 41.3086 2.54297
C 41.4766 2.66406 41.5605 2.84766 41.5605 3.09375
C 41.5605 3.33594 41.4766 3.51758 41.3086 3.63867
C 41.1445 3.75977 40.9863 3.82031 40.834 3.82031
C 40.6816 3.82031 40.5215 3.75977 40.3535 3.63867
C 40.1895 3.51758 40.1074 3.33594 40.1074 3.09375
Z
M 44.5371 8.77148
L 44.5371 7.86328
L 49.084 7.86328
L 49.084 8.77148
L 44.5371 8.77148
Z
M 51.6094 12
L 51.6094 2.54297
L 52.6992 2.54297
L 52.6992 8.48438
L 55.8457 5.45508
L 57.2988 5.45508
L 54.1582 8.48438
L 57.3809 12
L 55.8809 12
L 52.6992 8.48438
L 52.6992 12
L 51.6094 12
Z
M 58.5293 2.36133
C 59.6113 2.43164 60.5234 2.74023 61.2656 3.28711
C 62.0078 3.83008 62.5996 4.56445 63.041 5.49023
C 63.4863 6.41602 63.709 7.34375 63.709 8.27344
C 63.709 9.20312 63.4863 10.1309 63.041 11.0566
C 62.5996 11.9824 62.0078 12.7168 61.2656 13.2598
C 60.5234 13.8066 59.6113 14.1133 58.5293 14.1797
L 58.5293 13.2715
C 59.3457 13.1934 60.0469 12.918 60.6328 12.4453
C 61.2227 11.9727 61.6855 11.3691 62.0215 10.6348
C 62.3613 9.90039 62.5312 9.11328 62.5312 8.27344
C 62.5312 7.43359 62.3613 6.64648 62.0215 5.91211
C 61.6855 5.17773 61.2227 4.57422 60.6328 4.10156
C 60.0469 3.625 59.3457 3.34961 58.5293 3.27539
L 58.5293 2.36133
Z"/>
<path id="path13_fill" d="
M 6.28125 14.1797
C 5.19922 14.1133 4.28711 13.8066 3.54492 13.2598
C 2.80273 12.7168 2.20898 11.9824 1.76367 11.0566
C 1.32227 10.1309 1.10156 9.20312 1.10156 8.27344
C 1.10156 7.34375 1.32227 6.41602 1.76367 5.49023
C 2.20898 4.56445 2.80273 3.83008 3.54492 3.28711
C 4.28711 2.74023 5.19922 2.43164 6.28125 2.36133
L 6.28125 3.27539
C 5.46484 3.34961 4.76172 3.625 4.17188 4.10156
C 3.58594 4.57422 3.125 5.17773 2.78906 5.91211
C 2.45312 6.64648 2.28516 7.43359 2.28516 8.27344
C 2.28516 9.11328 2.45312 9.90039 2.78906 10.6348
C 3.125 11.3691 3.58594 11.9727 4.17188 12.4453
C 4.76172 12.918 5.46484 13.1934 6.28125 13.2715
L 6.28125 14.1797
Z
M 9.94336 12
L 9.94336 6.36328
L 8.12695 6.36328
L 8.12695 5.45508
L 11.0332 5.45508
L 11.0332 11.0918
L 12.8555 11.0918
L 12.8555 12
L 9.94336 12
Z
M 9.76172 3.09375
C 9.76172 2.84766 9.8457 2.66406 10.0137 2.54297
C 10.1816 2.42187 10.3398 2.36133 10.4883 2.36133
C 10.6406 2.36133 10.8008 2.42187 10.9688 2.54297
C 11.1367 2.66406 11.2207 2.84766 11.2207 3.09375
C 11.2207 3.33594 11.1367 3.51758 10.9688 3.63867
C 10.8008 3.75977 10.6406 3.82031 10.4883 3.82031
C 10.3398 3.82031 10.1816 3.75977 10.0137 3.63867
C 9.8457 3.51758 9.76172 3.33594 9.76172 3.09375
Z
M 16.8867 14.543
L 16.8867 13.8164
C 17.168 13.7422 17.3809 13.6348 17.5254 13.4941
C 17.6738 13.3574 17.791 13.1816 17.877 12.9668
C 17.9668 12.7559 18.0117 12.5 18.0117 12.1992
C 17.6484 12.1992 17.3809 12.0977 17.209 11.8945
C 17.0371 11.6875 16.9512 11.4668 16.9512 11.2324
C 16.9512 10.9629 17.0469 10.7363 17.2383 10.5527
C 17.4297 10.3652 17.6523 10.2715 17.9062 10.2715
C 18.2344 10.2715 18.5176 10.4141 18.7559 10.6992
C 18.9941 10.9805 19.1133 11.3672 19.1133 11.8594
C 19.1133 12.2891 19.0195 12.6934 18.832 13.0723
C 18.6445 13.4551 18.3887 13.7812 18.0645 14.0508
C 17.7441 14.3203 17.3516 14.4844 16.8867 14.543
Z
M 22.6113 14.5664
L 22.6113 13.5469
C 23.2207 13.7266 23.7344 13.8164 24.1523 13.8164
C 24.5156 13.8164 24.8242 13.752 25.0781 13.623
C 25.332 13.498 25.5293 13.2852 25.6699 12.9844
C 25.8145 12.6836 25.8867 12.1602 25.8867 11.4141
L 25.8867 6.36328
L 23.1094 6.36328
L 23.1094 5.45508
L 26.9766 5.45508
L 26.9766 11.209
C 26.9766 12.3184 26.8457 13.0879 26.584 13.5176
C 26.3223 13.9512 26.0059 14.2617 25.6348 14.4492
C 25.2637 14.6367 24.7559 14.7305 24.1113 14.7305
C 23.6465 14.7305 23.1465 14.6758 22.6113 14.5664
Z
M 25.7051 3.09375
C 25.7051 2.84766 25.7871 2.66406 25.9512 2.54297
C 26.1191 2.42187 26.2793 2.36133 26.4316 2.36133
C 26.584 2.36133 26.7422 2.42187 26.9062 2.54297
C 27.0742 2.66406 27.1582 2.84766 27.1582 3.09375
C 27.1582 3.33594 27.0742 3.51758 26.9062 3.63867
C 26.7422 3.75977 26.584 3.82031 26.4316 3.82031
C 26.2793 3.82031 26.1191 3.75977 25.9512 3.63867
C 25.7871 3.51758 25.7051 3.33594 25.7051 3.09375
Z
M 30.1348 8.77148
L 30.1348 7.86328
L 34.6816 7.86328
L 34.6816 8.77148
L 30.1348 8.77148
Z
M 37.207 12
L 37.207 2.54297
L 38.2969 2.54297
L 38.2969 8.48438
L 41.4434 5.45508
L 42.8965 5.45508
L 39.7559 8.48438
L 42.9785 12
L 41.4785 12
L 38.2969 8.48438
L 38.2969 12
L 37.207 12
Z
M 44.127 2.36133
C 45.209 2.43164 46.1211 2.74023 46.8633 3.28711
C 47.6055 3.83008 48.1973 4.56445 48.6387 5.49023
C 49.084 6.41602 49.3066 7.34375 49.3066 8.27344
C 49.3066 9.20312 49.084 10.1309 48.6387 11.0566
C 48.1973 11.9824 47.6055 12.7168 46.8633 13.2598
C 46.1211 13.8066 45.209 14.1133 44.127 14.1797
L 44.127 13.2715
C 44.9434 13.1934 45.6445 12.918 46.2305 12.4453
C 46.8203 11.9727 47.2832 11.3691 47.6191 10.6348
C 47.959 9.90039 48.1289 9.11328 48.1289 8.27344
C 48.1289 7.43359 47.959 6.64648 47.6191 5.91211
C 47.2832 5.17773 46.8203 4.57422 46.2305 4.10156
C 45.6445 3.625 44.9434 3.34961 44.127 3.27539
L 44.127 2.36133
Z"/>
<path id="path14_fill" d="
M 6.28125 14.1797
C 5.19922 14.1133 4.28711 13.8066 3.54492 13.2598
C 2.80273 12.7168 2.20898 11.9824 1.76367 11.0566
C 1.32227 10.1309 1.10156 9.20312 1.10156 8.27344
C 1.10156 7.34375 1.32227 6.41602 1.76367 5.49023
C 2.20898 4.56445 2.80273 3.83008 3.54492 3.28711
C 4.28711 2.74023 5.19922 2.43164 6.28125 2.36133
L 6.28125 3.27539
C 5.46484 3.34961 4.76172 3.625 4.17188 4.10156
C 3.58594 4.57422 3.125 5.17773 2.78906 5.91211
C 2.45312 6.64648 2.28516 7.43359 2.28516 8.27344
C 2.28516 9.11328 2.45312 9.90039 2.78906 10.6348
C 3.125 11.3691 3.58594 11.9727 4.17188 12.4453
C 4.76172 12.918 5.46484 13.1934 6.28125 13.2715
L 6.28125 14.1797
Z
M 9.94336 12
L 9.94336 6.36328
L 8.12695 6.36328
L 8.12695 5.45508
L 11.0332 5.45508
L 11.0332 11.0918
L 12.8555 11.0918
L 12.8555 12
L 9.94336 12
Z
M 9.76172 3.09375
C 9.76172 2.84766 9.8457 2.66406 10.0137 2.54297
C 10.1816 2.42187 10.3398 2.36133 10.4883 2.36133
C 10.6406 2.36133 10.8008 2.42187 10.9688 2.54297
C 11.1367 2.66406 11.2207 2.84766 11.2207 3.09375
C 11.2207 3.33594 11.1367 3.51758 10.9688 3.63867
C 10.8008 3.75977 10.6406 3.82031 10.4883 3.82031
C 10.3398 3.82031 10.1816 3.75977 10.0137 3.63867
C 9.8457 3.51758 9.76172 3.33594 9.76172 3.09375
Z
M 15.7324 8.77148
L 15.7324 7.86328
L 20.2793 7.86328
L 20.2793 8.77148
L 15.7324 8.77148
Z
M 22.8047 12
L 22.8047 2.54297
L 23.8945 2.54297
L 23.8945 8.48438
L 27.041 5.45508
L 28.4941 5.45508
L 25.3535 8.48438
L 28.5762 12
L 27.0762 12
L 23.8945 8.48438
L 23.8945 12
L 22.8047 12
Z
M 31.2891 14.543
L 31.2891 13.8164
C 31.5703 13.7422 31.7832 13.6348 31.9277 13.4941
C 32.0762 13.3574 32.1934 13.1816 32.2793 12.9668
C 32.3691 12.7559 32.4141 12.5 32.4141 12.1992
C 32.0508 12.1992 31.7832 12.0977 31.6113 11.8945
C 31.4395 11.6875 31.3535 11.4668 31.3535 11.2324
C 31.3535 10.9629 31.4492 10.7363 31.6406 10.5527
C 31.832 10.3652 32.0547 10.2715 32.3086 10.2715
C 32.6367 10.2715 32.9199 10.4141 33.1582 10.6992
C 33.3965 10.9805 33.5156 11.3672 33.5156 11.8594
C 33.5156 12.2891 33.4219 12.6934 33.2344 13.0723
C 33.0469 13.4551 32.791 13.7812 32.4668 14.0508
C 32.1465 14.3203 31.7539 14.4844 31.2891 14.543
Z
M 37.0137 14.5664
L 37.0137 13.5469
C 37.623 13.7266 38.1367 13.8164 38.5547 13.8164
C 38.918 13.8164 39.2266 13.752 39.4805 13.623
C 39.7344 13.498 39.9316 13.2852 40.0723 12.9844
C 40.2168 12.6836 40.2891 12.1602 40.2891 11.4141
L 40.2891 6.36328
L 37.5117 6.36328
L 37.5117 5.45508
L 41.3789 5.45508
L 41.3789 11.209
C 41.3789 12.3184 41.248 13.0879 40.9863 13.5176
C 40.7246 13.9512 40.4082 14.2617 40.0371 14.4492
C 39.666 14.6367 39.1582 14.7305 38.5137 14.7305
C 38.0488 14.7305 37.5488 14.6758 37.0137 14.5664
Z
M 40.1074 3.09375
C 40.1074 2.84766 40.1895 2.66406 40.3535 2.54297
C 40.5215 2.42187 40.6816 2.36133 40.834 2.36133
C 40.9863 2.36133 41.1445 2.42187 41.3086 2.54297
C 41.4766 2.66406 41.5605 2.84766 41.5605 3.09375
C 41.5605 3.33594 41.4766 3.51758 41.3086 3.63867
C 41.1445 3.75977 40.9863 3.82031 40.834 3.82031
C 40.6816 3.82031 40.5215 3.75977 40.3535 3.63867
C 40.1895 3.51758 40.1074 3.33594 40.1074 3.09375
Z
M 44.5371 8.77148
L 44.5371 7.86328
L 49.084 7.86328
L 49.084 8.77148
L 44.5371 8.77148
Z
M 51.6094 12
L 51.6094 2.54297
L 52.6992 2.54297
L 52.6992 8.48438
L 55.8457 5.45508
L 57.2988 5.45508
L 54.1582 8.48438
L 57.3809 12
L 55.8809 12
L 52.6992 8.48438
L 52.6992 12
L 51.6094 12
Z
M 58.5293 2.36133
C 59.6113 2.43164 60.5234 2.74023 61.2656 3.28711
C 62.0078 3.83008 62.5996 4.56445 63.041 5.49023
C 63.4863 6.41602 63.709 7.34375 63.709 8.27344
C 63.709 9.20312 63.4863 10.1309 63.041 11.0566
C 62.5996 11.9824 62.0078 12.7168 61.2656 13.2598
C 60.5234 13.8066 59.6113 14.1133 58.5293 14.1797
L 58.5293 13.2715
C 59.3457 13.1934 60.0469 12.918 60.6328 12.4453
C 61.2227 11.9727 61.6855 11.3691 62.0215 10.6348
C 62.3613 9.90039 62.5312 9.11328 62.5312 8.27344
C 62.5312 7.43359 62.3613 6.64648 62.0215 5.91211
C 61.6855 5.17773 61.2227 4.57422 60.6328 4.10156
C 60.0469 3.625 59.3457 3.34961 58.5293 3.27539
L 58.5293 2.36133
Z"/>
</defs>
</svg>
